<svg width="98" height="51" viewBox="0 0 98 51" fill="none" xmlns="http://www.w3.org/2000/svg">
<path fill-rule="evenodd" clip-rule="evenodd" d="M25.5141 0.277344H73.3009C86.9175 0.277344 97.9947 11.3982 97.9947 25.0675C97.9947 38.7368 86.9175 49.8576 73.3009 49.8576H25.5141C11.8975 49.8576 0.820312 38.7368 0.820312 25.0675C0.820312 11.3982 11.8975 0.277344 25.5141 0.277344ZM47.4542 38.7056C48.054 39.3368 48.9421 39.3057 49.7288 39.142L49.7366 39.1459C50.1018 38.8487 49.5827 38.4724 49.087 38.113C48.7898 37.8975 48.5009 37.688 48.4162 37.5054C48.6906 37.1706 47.879 36.4105 47.2472 35.8188C46.982 35.5704 46.7484 35.3516 46.6402 35.2064C46.1906 34.7169 46.0099 34.0991 45.8281 33.4777C45.7075 33.0654 45.5864 32.6515 45.386 32.2723C44.1513 29.4044 42.7375 26.5599 40.7549 24.1323C39.4808 22.5189 38.0267 21.0739 36.5721 19.6285C35.6344 18.6967 34.6964 17.7647 33.8064 16.7872C32.8905 15.8413 32.3393 14.676 31.7872 13.5088C31.325 12.5316 30.8621 11.553 30.1841 10.7007C28.1315 7.6614 21.6504 6.83142 20.7 11.1255C20.7039 11.258 20.661 11.3437 20.5442 11.4294C20.0184 11.8152 19.551 12.2516 19.1576 12.7815C18.1955 14.1259 18.0475 16.4054 19.2472 17.6133C19.2489 17.5874 19.2506 17.5616 19.2523 17.5358C19.2924 16.9258 19.3299 16.3557 19.8119 15.9183C20.7389 16.7171 22.145 17.0015 23.22 16.4054C24.5161 18.2654 24.929 20.5139 25.3432 22.7701C25.6883 24.6496 26.0344 26.5343 26.8929 28.2043C26.9106 28.2338 26.9284 28.2633 26.9461 28.2929C27.4507 29.1334 27.9634 29.9874 28.6106 30.7215C28.8457 31.086 29.3283 31.4795 29.8102 31.8723C30.4459 32.3907 31.0802 32.9078 31.1423 33.3556C31.1451 33.5504 31.1442 33.7478 31.1434 33.9464C31.1384 35.1223 31.1331 36.34 31.8862 37.3067C32.303 38.1523 31.2825 39.0017 30.4607 38.8965C30.01 38.959 29.5178 38.8402 29.029 38.7223C28.3601 38.5609 27.6979 38.4011 27.1578 38.7095C27.0063 38.8735 26.7887 38.8793 26.57 38.885C26.3108 38.8919 26.05 38.8988 25.8958 39.1693C25.8641 39.2498 25.7901 39.3405 25.7131 39.4349C25.5441 39.6422 25.3609 39.8669 25.5803 40.0382C25.6 40.0233 25.6196 40.0084 25.6391 39.9934C25.9715 39.7396 26.2883 39.4977 26.7371 39.6486C26.6774 39.9803 26.8915 40.0691 27.1055 40.1579C27.1429 40.1735 27.1803 40.189 27.2162 40.2058C27.2139 40.2828 27.1987 40.3605 27.1836 40.4376C27.1477 40.6218 27.1124 40.8024 27.2551 40.9617C27.3229 40.8928 27.3829 40.8153 27.4429 40.7377C27.5899 40.5477 27.7375 40.3568 28.003 40.2876C28.5869 41.0677 29.1751 40.7437 29.9131 40.3371C30.7455 39.8786 31.7686 39.315 33.191 40.1123C32.6457 40.085 32.1588 40.1512 31.7927 40.6032C31.7031 40.7045 31.6252 40.8214 31.7849 40.9539C32.6265 40.4084 32.9767 40.6045 33.3063 40.789C33.5441 40.9222 33.7713 41.0494 34.1647 40.8877C34.2578 40.8391 34.3507 40.789 34.4439 40.7387C35.0757 40.3977 35.7164 40.0518 36.4666 40.1707C35.9063 40.3324 35.7069 40.6877 35.4893 41.0756C35.3817 41.2673 35.2697 41.4671 35.1073 41.6553C35.0216 41.741 34.9827 41.8423 35.08 41.9865C36.2534 41.8889 36.6967 41.5913 37.2956 41.1892C37.5814 40.9973 37.9027 40.7817 38.3557 40.5526C38.8564 40.2442 39.3571 40.4414 39.8423 40.6326C40.3686 40.8399 40.8768 41.0401 41.347 40.5798C41.4955 40.4398 41.6817 40.4381 41.8672 40.4364C41.9347 40.4358 42.0021 40.4352 42.0675 40.4279C41.9212 39.6437 41.0958 39.653 40.2579 39.6623C39.2888 39.6732 38.303 39.6842 38.3323 38.4679C39.2327 37.8527 39.2411 36.7849 39.2489 35.7757C39.2508 35.5321 39.2527 35.2919 39.2671 35.0623C39.9294 35.4317 40.6299 35.7204 41.3261 36.0074C41.981 36.2773 42.6321 36.5457 43.2438 36.8781C43.8826 37.9068 44.8797 39.2706 46.2078 39.181C46.2429 39.0758 46.274 38.9861 46.313 38.8809C46.3896 38.8943 46.4704 38.9148 46.5526 38.9356C46.9011 39.024 47.2746 39.1186 47.4542 38.7056ZM73.4798 27.0143C74.2488 27.7818 75.2918 28.213 76.3794 28.213C77.467 28.213 78.5101 27.7818 79.2791 27.0143C80.0481 26.2468 80.4802 25.2058 80.4802 24.1204C80.4802 23.0349 80.0481 21.9939 79.2791 21.2264C78.5101 20.4589 77.467 20.0277 76.3794 20.0277C75.8708 20.0277 75.3718 20.122 74.9061 20.301L72.5531 16.8647L70.9149 17.9874L73.2798 21.4408C72.6362 22.1823 72.2787 23.1329 72.2787 24.1204C72.2787 25.2058 72.7107 26.2468 73.4798 27.0143ZM66.1211 15.8987C66.6965 16.1832 67.3308 16.3288 67.9729 16.3239C68.849 16.3171 69.6999 16.0305 70.4009 15.506C71.102 14.9815 71.6163 14.2467 71.8684 13.4093C72.1206 12.5719 72.0974 11.6759 71.8023 10.8526C71.5071 10.0293 70.9555 9.32198 70.2283 8.8343C69.6953 8.47688 69.0857 8.24938 68.4485 8.1701C67.8113 8.09083 67.1643 8.16201 66.5598 8.3779C65.9552 8.59379 65.4098 8.94836 64.9676 9.41306C64.5255 9.87777 64.1988 10.4396 64.014 11.0533C63.8292 11.6671 63.7913 12.3156 63.9036 12.9465C64.0158 13.5775 64.2749 14.1734 64.6601 14.6862C65.0452 15.199 65.5457 15.6143 66.1211 15.8987ZM66.1211 39.6641C66.6965 39.9485 67.3308 40.0941 67.9729 40.0892C68.849 40.0824 69.6999 39.7958 70.4009 39.2713C71.102 38.7468 71.6163 38.012 71.8684 37.1746C72.1206 36.3372 72.0974 35.4412 71.8023 34.6179C71.5071 33.7946 70.9555 33.0873 70.2283 32.5996C69.6953 32.2422 69.0857 32.0147 68.4485 31.9354C67.8113 31.8562 67.1643 31.9273 66.5598 32.1432C65.9552 32.3591 65.4098 32.7137 64.9676 33.1784C64.5255 33.6431 64.1988 34.2049 64.014 34.8187C63.8292 35.4324 63.7913 36.0809 63.9036 36.7119C64.0158 37.3429 64.2749 37.9388 64.6601 38.4515C65.0452 38.9643 65.5457 39.3796 66.1211 39.6641ZM69.8932 25.1383V23.1035H63.6168C63.459 22.4866 63.1579 21.9151 62.7377 21.4351L65.099 17.9353L63.3817 16.7959L61.0204 20.2956C60.5877 20.1392 60.1315 20.0567 59.6711 20.0515C58.5867 20.0515 57.5467 20.4802 56.7799 21.2434C56.0131 22.0065 55.5823 23.0416 55.5823 24.1209C55.5823 25.2002 56.0131 26.2353 56.7799 26.9984C57.5467 27.7616 58.5867 28.1904 59.6711 28.1904C60.1315 28.1852 60.5877 28.1026 61.0204 27.9462L63.3817 31.4459L65.0786 30.3065L62.7377 26.8068C63.1579 26.3267 63.459 25.7552 63.6168 25.1383H69.8932Z" fill="#264849"/>
</svg>
