<svg width="489" height="251" viewBox="0 0 489 251" fill="none" xmlns="http://www.w3.org/2000/svg">
<path d="M365.911 0.323242C433.84 1.19002 488.822 56.9065 488.822 125.262L488.812 126.874C487.956 194.491 433.305 249.339 365.911 250.199L364.304 250.209H125.272C57.1425 250.209 1.62615 195.028 0.762695 126.874L0.75293 125.262C0.75293 56.368 56.606 0.313477 125.272 0.313477H364.304L365.911 0.323242ZM122.818 41.7412C117.969 41.6182 113.355 42.6112 109.691 44.877C106.076 47.1133 103.335 50.6187 102.191 55.6641C102.188 56.0661 102.116 56.4675 101.919 56.8545C101.701 57.2809 101.375 57.6066 101.004 57.8789C98.4372 59.7612 96.1759 61.8759 94.2793 64.4297C92.0112 67.6052 90.6805 71.9229 90.6455 76.1758C90.6177 79.5599 91.4103 82.8238 93.1201 85.416C93.3727 83.062 93.9713 80.6874 96.0781 78.7764L96.7324 78.1816L97.4023 78.7588C101.794 82.5414 108.379 83.8121 113.312 81.0771L114.102 80.6396L114.617 81.3799C120.696 90.1003 122.954 100.456 124.879 110.768C126.815 121.139 128.414 131.444 133.046 140.463C135.498 144.543 137.917 148.616 140.904 152.164L141.511 152.869L141.561 152.925L141.601 152.988C142.204 153.924 143.216 154.955 144.476 156.069C145.731 157.18 147.147 158.3 148.547 159.454C149.926 160.591 151.285 161.756 152.336 162.901C153.361 164.018 154.234 165.261 154.415 166.563L154.424 166.625L154.425 166.687C154.475 170.145 154.304 173.551 154.665 176.88C154.999 179.96 155.782 182.833 157.564 185.344L157.935 185.842L157.997 185.922L158.042 186.014C159.331 188.628 158.34 191.197 156.609 192.922C154.932 194.594 152.396 195.664 150.021 195.411C148.576 195.591 147.095 195.442 145.659 195.18C144.198 194.913 142.672 194.507 141.282 194.188C138.433 193.535 136.045 193.231 134.104 194.275C133.525 194.84 132.841 195.095 132.193 195.217C131.538 195.34 130.823 195.338 130.283 195.355C129.11 195.394 128.487 195.526 128.068 196.231C127.871 196.678 127.545 197.105 127.277 197.439C127.121 197.634 126.973 197.811 126.837 197.98C128.16 197.145 129.742 196.556 131.708 197.217L132.526 197.492L132.374 198.342C132.31 198.699 132.347 198.894 132.385 198.996C132.42 199.092 132.484 199.184 132.617 199.287C132.763 199.401 132.967 199.509 133.255 199.636C133.483 199.736 133.912 199.906 134.21 200.045L134.806 200.324L134.786 200.981C134.774 201.394 134.703 201.79 134.64 202.122C134.619 202.231 134.598 202.331 134.58 202.426C134.663 202.324 134.749 202.222 134.836 202.123C135.459 201.413 136.264 200.707 137.47 200.393L138.119 200.224L138.522 200.761C139.229 201.704 139.882 202.219 140.477 202.483C141.06 202.742 141.665 202.795 142.346 202.681C143.045 202.563 143.813 202.272 144.688 201.848C145.569 201.421 146.482 200.899 147.516 200.336C149.541 199.233 151.917 198.032 154.683 197.626C157.485 197.215 160.619 197.627 164.16 199.611L163.622 201.482C161.577 201.38 159.906 201.562 158.548 202.529C159.373 202.187 160.116 201.998 160.804 201.935C162.144 201.811 163.158 202.173 163.997 202.595C164.381 202.788 164.796 203.03 165.101 203.195C165.436 203.377 165.73 203.518 166.025 203.612C166.556 203.781 167.182 203.829 168.125 203.449C169.859 202.543 171.741 201.438 173.677 200.674C175.666 199.888 177.826 199.41 180.213 199.788L180.334 201.736C178.537 202.255 177.628 203.204 176.848 204.415C176.429 205.065 176.086 205.723 175.632 206.509C175.213 207.233 174.729 208.002 174.097 208.752C177.619 208.352 179.606 207.541 181.427 206.468C182.466 205.855 183.432 205.17 184.656 204.364C185.857 203.574 187.242 202.709 189.029 201.804C192.125 199.932 195.238 201.343 197.615 202.274C198.896 202.776 199.987 203.167 201.005 203.215C201.947 203.259 202.847 203.009 203.77 202.106L203.776 202.1L203.783 202.094C204.52 201.4 205.371 201.202 206.104 201.139C206.302 201.122 206.501 201.114 206.69 201.109C206.534 200.835 206.35 200.61 206.141 200.424C205.681 200.014 205.048 199.723 204.224 199.531C202.524 199.136 200.379 199.231 198.043 199.243C195.825 199.255 193.392 199.194 191.533 198.286C190.567 197.814 189.737 197.106 189.172 196.07C188.613 195.047 188.353 193.777 188.39 192.237L188.402 191.726L188.825 191.436C191.298 189.747 192.292 187.284 192.695 184.392C192.898 182.937 192.946 181.405 192.965 179.836C192.983 178.289 192.973 176.681 193.067 175.172L193.167 173.588L194.553 174.361C197.708 176.121 201.05 177.512 204.437 178.907C207.594 180.208 210.796 181.515 213.83 183.11L214.435 183.434L214.667 183.561L214.807 183.785C216.394 186.34 218.382 189.236 220.756 191.433C222.952 193.465 225.384 194.812 228.061 194.846C228.158 194.564 228.258 194.284 228.371 193.979L228.66 193.198L229.48 193.342C230.027 193.437 230.627 193.602 231.13 193.726C231.666 193.858 232.135 193.956 232.553 193.979C232.965 194.001 233.255 193.945 233.469 193.831C233.666 193.726 233.897 193.52 234.101 193.051L234.703 191.668L235.742 192.761C238.303 195.454 242.152 195.461 245.982 194.692C246.036 194.621 246.045 194.581 246.046 194.571C246.05 194.541 246.055 194.433 245.925 194.205C245.641 193.709 244.984 193.093 244.039 192.363C243.585 192.012 243.097 191.659 242.599 191.298C242.106 190.941 241.602 190.575 241.137 190.215C240.673 189.856 240.226 189.485 239.852 189.112C239.486 188.748 239.136 188.331 238.922 187.87L238.658 187.301L239.056 186.815C239.08 186.786 239.124 186.728 239.093 186.524C239.057 186.293 238.931 185.956 238.663 185.511C238.129 184.622 237.201 183.56 236.092 182.434C234.992 181.317 233.778 180.198 232.695 179.181C231.671 178.217 230.711 177.294 230.181 176.6C228.17 174.396 227.183 171.746 226.393 169.169C225.58 166.521 224.986 164.019 223.788 161.752L223.77 161.717L223.754 161.68C217.589 147.366 210.56 133.247 200.733 121.219L200.729 121.212L200.723 121.206C195.52 114.62 189.704 108.59 183.75 102.631C177.807 96.6836 171.71 90.792 166.011 84.5352V84.5342C161.689 80.0635 158.965 74.6649 156.423 69.3232C153.856 63.9301 151.483 58.6182 147.85 54.0527L147.825 54.0215L147.804 53.9893C142.893 46.7212 132.561 41.9885 122.818 41.7412ZM344.5 50.3389C303.369 50.3389 270.025 83.682 270.025 124.813C270.025 165.945 303.369 199.289 344.5 199.289C385.631 199.289 418.976 165.945 418.976 124.813C418.976 83.682 385.631 50.3389 344.5 50.3389ZM302.304 95.3154C306.087 91.5322 312.148 91.4141 316.073 94.9609L316.446 95.3154L343.393 122.262L316.446 149.208C312.541 153.113 306.209 153.113 302.304 149.208C298.399 145.303 298.399 138.971 302.304 135.065L315.107 122.262L302.304 109.458L301.949 109.085C298.402 105.16 298.521 99.0987 302.304 95.3154ZM375.989 127.202C381.273 127.47 385.475 131.839 385.475 137.189C385.474 142.539 381.272 146.908 375.989 147.176L375.475 147.189H355.185C349.662 147.189 345.185 142.712 345.185 137.189C345.185 131.667 349.662 127.189 355.185 127.189H375.475L375.989 127.202Z" fill="#1C3C3C"/>
</svg>
