<svg width="2018" height="196" viewBox="0 0 2018 196" fill="none" xmlns="http://www.w3.org/2000/svg">
<path d="M259.955 0.229248C308.707 0.229248 348.367 40.0285 348.367 88.948C348.367 137.867 308.707 177.667 259.955 177.667H88.8623C40.1103 177.667 0.450287 137.867 0.450195 88.948C0.450195 40.0285 40.1102 0.229327 88.8623 0.229248H259.955ZM252.577 117.12C249.963 116.795 247.308 117.087 244.827 117.972C242.347 118.858 240.109 120.312 238.295 122.218C236.481 124.123 235.14 126.428 234.382 128.945C233.624 131.462 233.468 134.122 233.929 136.71C234.389 139.297 235.453 141.742 237.033 143.844C238.613 145.947 240.667 147.651 243.027 148.817C245.388 149.984 247.991 150.581 250.626 150.56C254.22 150.532 257.712 149.358 260.588 147.207C263.464 145.056 265.575 142.042 266.609 138.607C267.644 135.173 267.549 131.498 266.338 128.122C265.127 124.745 262.864 121.844 259.88 119.844C257.693 118.378 255.191 117.445 252.577 117.12ZM105.583 37.532C98.2339 26.6548 75.0286 23.685 71.626 39.0525C71.6398 39.5264 71.4865 39.8327 71.0684 40.1394C69.1858 41.52 67.512 43.0827 66.1035 44.9792C62.6594 49.7904 62.1299 57.9484 66.4248 62.2712C66.5782 59.9844 66.6477 57.8364 68.4463 56.2048C71.7651 59.0635 76.7996 60.0814 80.6484 57.948C89.1549 70.1499 87.0355 87.0233 93.7988 100.174C95.6675 103.283 97.5507 106.463 99.9492 109.182C101.902 112.208 108.623 115.792 109.014 118.609C109.083 123.434 108.525 128.706 111.677 132.75C113.168 135.776 109.516 138.815 106.573 138.439C102.752 138.969 98.0939 135.859 94.7471 137.769C93.5619 139.052 91.2476 137.631 90.2295 139.415C89.8669 140.335 87.9561 141.633 89.0996 142.525C90.3686 141.563 91.5399 140.559 93.2412 141.131C92.9903 142.525 94.0915 142.72 94.9561 143.125C94.9281 144.059 94.3709 145.021 95.0957 145.83C95.9324 144.979 96.4347 143.766 97.7734 143.418C102.222 149.358 106.741 137.407 116.349 142.79C114.396 142.692 112.653 142.929 111.342 144.547C111.021 144.909 110.743 145.328 111.314 145.802C116.502 142.442 116.474 146.946 119.835 145.565C122.429 144.213 124.994 142.511 128.076 142.999C125.078 143.863 124.966 146.276 123.209 148.312C122.902 148.619 122.763 148.982 123.111 149.498C129.317 148.982 129.82 146.904 134.84 144.366C138.577 142.065 142.315 147.629 145.55 144.464C146.275 143.78 147.25 144.017 148.129 143.92C146.999 137.867 134.561 145.021 134.756 136.905C138.758 134.172 137.838 128.943 138.103 124.718C142.704 127.283 147.823 128.761 152.341 131.216C154.628 134.897 158.198 139.778 162.953 139.457C163.079 139.081 163.19 138.76 163.329 138.384C164.765 138.635 166.62 139.582 167.415 137.756C169.563 140.015 172.743 139.904 175.56 139.318L175.587 139.332C177.679 137.63 171.668 135.204 170.859 133.461C172.254 131.759 165.812 126.99 164.501 125.233C161.824 122.319 161.81 118.135 160.011 114.732C155.59 104.469 150.528 94.2891 143.43 85.6013C135.927 76.1047 126.682 68.2391 118.552 59.3142C112.528 53.0947 110.91 44.2256 105.583 37.532ZM222.09 69.3796C220.314 68.7382 218.442 68.4 216.554 68.3787C212.105 68.3787 207.838 70.1367 204.691 73.2664C201.545 76.3963 199.777 80.6418 199.777 85.0681C199.777 89.4945 201.545 93.7399 204.691 96.8699C207.838 99.9997 212.104 101.758 216.554 101.759C218.443 101.737 220.314 101.398 222.09 100.757L231.779 115.11L238.741 110.437L229.137 96.0837C230.86 94.1149 232.095 91.7711 232.743 89.241H258.496V80.8962H232.743C232.095 78.3662 230.86 76.0222 229.137 74.0535L238.825 59.7L231.779 55.0261L222.09 69.3796ZM262.701 59.9333L272.395 74.0837C269.757 77.1238 268.292 81.021 268.292 85.0681C268.292 89.5195 270.066 93.7886 273.221 96.9363C276.376 100.084 280.656 101.853 285.118 101.853C289.581 101.853 293.86 100.084 297.016 96.9363C300.171 93.7886 301.943 89.5195 301.943 85.0681C301.943 80.6165 300.171 76.3468 297.016 73.199C293.86 70.0512 289.581 68.283 285.118 68.283C283.028 68.283 280.978 68.6703 279.065 69.406L269.422 55.3289L262.701 59.9333ZM252.577 19.6511C249.963 19.326 247.308 19.6182 244.827 20.5037C242.347 21.3891 240.109 22.843 238.295 24.7488C236.481 26.6546 235.14 28.9592 234.382 31.4763C233.624 33.9933 233.468 36.6532 233.929 39.241C234.389 41.8287 235.453 44.2728 237.033 46.3757C238.613 48.4785 240.667 50.1819 243.027 51.3484C245.388 52.5149 247.991 53.1128 250.626 53.0925C254.22 53.0647 257.712 51.8889 260.588 49.738C263.464 47.587 265.575 44.5728 266.609 41.1384C267.644 37.7042 267.549 34.0294 266.338 30.6531C265.127 27.2767 262.863 24.3758 259.88 22.3757C257.693 20.9099 255.191 19.9763 252.577 19.6511Z" fill="white"/>
<path d="M1997.15 152.188V96.4283C1997.15 90.1383 1995.59 85.2366 1992.47 81.7233C1989.35 78.1533 1985.13 76.3683 1979.81 76.3683C1976.52 76.3683 1973.57 77.1333 1970.97 78.6633C1968.36 80.1366 1966.29 82.3466 1964.76 85.2933C1963.23 88.1833 1962.47 91.6399 1962.47 95.6633L1953.37 90.3083C1953.31 83.9616 1954.73 78.3799 1957.62 73.5633C1960.57 68.6899 1964.53 64.8933 1969.52 62.1733C1974.51 59.4533 1980.06 58.0933 1986.18 58.0933C1996.32 58.0933 2004.09 61.1533 2009.47 67.2733C2014.91 73.3366 2017.63 81.3266 2017.63 91.2433V152.188H1997.15ZM1886.73 152.188V60.3883H1904.84V88.8633H1907.39V152.188H1886.73ZM1942.07 152.188V96.6833C1942.07 90.2799 1940.51 85.2933 1937.39 81.7233C1934.27 78.1533 1930.02 76.3683 1924.64 76.3683C1919.43 76.3683 1915.23 78.1533 1912.06 81.7233C1908.94 85.2933 1907.39 89.9399 1907.39 95.6633L1898.21 89.5433C1898.21 83.5933 1899.68 78.2383 1902.63 73.4783C1905.57 68.7183 1909.54 64.9783 1914.53 62.2583C1919.57 59.4816 1925.21 58.0933 1931.44 58.0933C1938.3 58.0933 1944.02 59.5666 1948.61 62.5133C1953.26 65.4033 1956.71 69.3699 1958.98 74.4133C1961.3 79.3999 1962.47 85.0383 1962.47 91.3283V152.188H1942.07Z" fill="white"/>
<path d="M1825.8 152.188V60.3881H1843.91V82.7432L1841.7 79.8532C1842.83 76.7932 1844.33 74.0165 1846.2 71.5231C1848.13 68.9731 1850.42 66.8765 1853.09 65.2332C1855.35 63.7031 1857.85 62.5132 1860.57 61.6632C1863.34 60.7565 1866.18 60.2181 1869.07 60.0481C1871.96 59.8215 1874.76 59.9348 1877.48 60.3881V79.5131C1874.76 78.7198 1871.62 78.4648 1868.05 78.7481C1864.53 79.0315 1861.36 80.0231 1858.53 81.7231C1855.69 83.2531 1853.37 85.2081 1851.56 87.5881C1849.8 89.9681 1848.5 92.6881 1847.65 95.7481C1846.8 98.7515 1846.37 102.01 1846.37 105.523V152.188H1825.8Z" fill="white"/>
<path d="M1768.06 154.738C1758.88 154.738 1750.86 152.67 1744 148.533C1737.15 144.396 1731.82 138.701 1728.02 131.448C1724.28 124.138 1722.41 115.751 1722.41 106.288C1722.41 96.6548 1724.34 88.2115 1728.19 80.9581C1732.05 73.7048 1737.4 68.0381 1744.26 63.9581C1751.11 59.8781 1759.05 57.8381 1768.06 57.8381C1777.29 57.8381 1785.34 59.9065 1792.2 64.0431C1799.05 68.1798 1804.38 73.9031 1808.18 81.2131C1811.97 88.4665 1813.87 96.8248 1813.87 106.288C1813.87 115.808 1811.95 124.223 1808.09 131.533C1804.3 138.786 1798.97 144.481 1792.11 148.618C1785.26 152.698 1777.24 154.738 1768.06 154.738ZM1768.06 135.528C1776.22 135.528 1782.28 132.808 1786.25 127.368C1790.21 121.928 1792.2 114.901 1792.2 106.288C1792.2 97.3915 1790.19 90.3081 1786.16 85.0381C1782.14 79.7115 1776.1 77.0481 1768.06 77.0481C1762.56 77.0481 1758.03 78.2948 1754.46 80.7881C1750.94 83.2248 1748.34 86.6531 1746.64 91.0731C1744.94 95.4365 1744.09 100.508 1744.09 106.288C1744.09 115.185 1746.1 122.296 1750.12 127.623C1754.2 132.893 1760.18 135.528 1768.06 135.528Z" fill="white"/>
<path d="M1681.38 152.188V58.9433C1681.38 56.6199 1681.46 54.0699 1681.63 51.2933C1681.8 48.4599 1682.28 45.6549 1683.08 42.8783C1683.87 40.1016 1685.31 37.5799 1687.41 35.3133C1690.02 32.4233 1692.82 30.4399 1695.83 29.3633C1698.89 28.2299 1701.89 27.6066 1704.84 27.4933C1707.78 27.3233 1710.36 27.2383 1712.57 27.2383H1724.05V43.8983H1713.42C1709.51 43.8983 1706.59 44.8899 1704.67 46.8733C1702.8 48.7999 1701.86 51.3499 1701.86 54.5233V152.188H1681.38ZM1666.59 76.4533V60.3883H1724.05V76.4533H1666.59Z" fill="white"/>
<path d="M1660.45 152.188C1654.38 153.322 1648.43 153.803 1642.6 153.633C1636.82 153.52 1631.63 152.472 1627.04 150.488C1622.45 148.448 1618.97 145.247 1616.59 140.883C1614.49 136.917 1613.38 132.865 1613.27 128.728C1613.16 124.592 1613.1 119.917 1613.1 114.703V34.8882H1633.5V113.513C1633.5 117.197 1633.53 120.427 1633.59 123.203C1633.7 125.98 1634.29 128.247 1635.37 130.003C1637.41 133.403 1640.67 135.302 1645.15 135.698C1649.62 136.095 1654.72 135.868 1660.45 135.018V152.188ZM1596.44 76.4532V60.3882H1660.45V76.4532H1596.44Z" fill="white"/>
<path d="M1541.16 154.738C1534.53 154.738 1528.92 153.491 1524.33 150.998C1519.74 148.448 1516.26 145.076 1513.88 140.883C1511.55 136.69 1510.39 132.071 1510.39 127.028C1510.39 122.608 1511.13 118.641 1512.6 115.128C1514.07 111.558 1516.34 108.498 1519.4 105.948C1522.46 103.341 1526.43 101.216 1531.3 99.5731C1534.98 98.3831 1539.29 97.3065 1544.22 96.3431C1549.21 95.3798 1554.59 94.5015 1560.37 93.7081C1566.21 92.8581 1572.3 91.9515 1578.65 90.9881L1571.34 95.1531C1571.39 88.8065 1569.98 84.1315 1567.09 81.1281C1564.2 78.1248 1559.32 76.6231 1552.47 76.6231C1548.33 76.6231 1544.33 77.5865 1540.48 79.5131C1536.63 81.4398 1533.94 84.7548 1532.41 89.4581L1513.71 83.5931C1515.97 75.8298 1520.28 69.5965 1526.63 64.8931C1533.03 60.1898 1541.64 57.8381 1552.47 57.8381C1560.63 57.8381 1567.79 59.1698 1573.97 61.8331C1580.2 64.4965 1584.82 68.8598 1587.83 74.9231C1589.47 78.1531 1590.46 81.4681 1590.8 84.8681C1591.14 88.2115 1591.31 91.8665 1591.31 95.8331V152.188H1573.38V132.298L1576.35 135.528C1572.21 142.158 1567.37 147.031 1561.82 150.148C1556.32 153.208 1549.43 154.738 1541.16 154.738ZM1545.24 138.418C1549.89 138.418 1553.85 137.596 1557.14 135.953C1560.43 134.31 1563.03 132.298 1564.96 129.918C1566.94 127.538 1568.28 125.3 1568.96 123.203C1570.03 120.596 1570.63 117.621 1570.74 114.278C1570.91 110.878 1571 108.13 1571 106.033L1577.29 107.903C1571.11 108.866 1565.81 109.716 1561.39 110.453C1556.97 111.19 1553.17 111.898 1550 112.578C1546.83 113.201 1544.02 113.91 1541.59 114.703C1539.21 115.553 1537.19 116.545 1535.55 117.678C1533.91 118.811 1532.63 120.115 1531.73 121.588C1530.88 123.061 1530.45 124.79 1530.45 126.773C1530.45 129.04 1531.02 131.051 1532.15 132.808C1533.28 134.508 1534.93 135.868 1537.08 136.888C1539.29 137.908 1542.01 138.418 1545.24 138.418Z" fill="white"/>
<path d="M1476.34 152.188V27.2383H1496.83V152.188H1476.34Z" fill="white"/>
<path d="M1372.87 152.188V29.7883H1423.45C1424.64 29.7883 1426.17 29.845 1428.04 29.9583C1429.91 30.015 1431.63 30.185 1433.22 30.4683C1440.3 31.545 1446.14 33.8967 1450.73 37.5233C1455.38 41.15 1458.81 45.74 1461.02 51.2933C1463.28 56.79 1464.42 62.91 1464.42 69.6533C1464.42 76.34 1463.28 82.46 1461.02 88.0133C1458.75 93.51 1455.29 98.0717 1450.65 101.698C1446.06 105.325 1440.25 107.677 1433.22 108.753C1431.63 108.98 1429.88 109.15 1427.95 109.263C1426.08 109.377 1424.58 109.433 1423.45 109.433H1393.36V152.188H1372.87ZM1393.36 90.3083H1422.6C1423.73 90.3083 1425 90.2517 1426.42 90.1383C1427.84 90.025 1429.14 89.7983 1430.33 89.4583C1433.73 88.6083 1436.39 87.1067 1438.32 84.9533C1440.3 82.8 1441.69 80.3633 1442.49 77.6433C1443.34 74.9233 1443.76 72.26 1443.76 69.6533C1443.76 67.0467 1443.34 64.3833 1442.49 61.6633C1441.69 58.8867 1440.3 56.4217 1438.32 54.2683C1436.39 52.115 1433.73 50.6133 1430.33 49.7633C1429.14 49.4233 1427.84 49.225 1426.42 49.1683C1425 49.055 1423.73 48.9983 1422.6 48.9983H1393.36V90.3083Z" fill="white"/>
<path d="M1332.7 152.188C1326.63 153.322 1320.68 153.803 1314.85 153.633C1309.07 153.52 1303.88 152.472 1299.29 150.488C1294.7 148.448 1291.22 145.247 1288.84 140.883C1286.74 136.917 1285.64 132.865 1285.52 128.728C1285.41 124.592 1285.35 119.917 1285.35 114.703V34.8882H1305.75V113.513C1305.75 117.197 1305.78 120.427 1305.84 123.203C1305.95 125.98 1306.55 128.247 1307.62 130.003C1309.66 133.403 1312.92 135.302 1317.4 135.698C1321.87 136.095 1326.97 135.868 1332.7 135.018V152.188ZM1268.69 76.4532V60.3882H1332.7V76.4532H1268.69Z" fill="white"/>
<path d="M1242.77 152.188V107.988C1242.77 105.098 1242.57 101.897 1242.18 98.3832C1241.78 94.8698 1240.84 91.4982 1239.37 88.2682C1237.95 84.9815 1235.8 82.2898 1232.91 80.1932C1230.08 78.0965 1226.22 77.0482 1221.35 77.0482C1218.74 77.0482 1216.17 77.4732 1213.62 78.3232C1211.07 79.1732 1208.74 80.6465 1206.65 82.7432C1204.61 84.7832 1202.96 87.6165 1201.72 91.2432C1200.47 94.8132 1199.85 99.4032 1199.85 105.013L1187.69 99.8282C1187.69 92.0082 1189.19 84.9248 1192.2 78.5782C1195.26 72.2315 1199.73 67.1882 1205.63 63.4482C1211.52 59.6515 1218.77 57.7532 1227.39 57.7532C1234.19 57.7532 1239.8 58.8865 1244.22 61.1532C1248.64 63.4198 1252.15 66.3098 1254.76 69.8232C1257.36 73.3365 1259.29 77.0765 1260.54 81.0432C1261.78 85.0098 1262.58 88.7782 1262.92 92.3482C1263.31 95.8615 1263.51 98.7232 1263.51 100.933V152.188H1242.77ZM1179.11 152.188V60.3882H1197.38V88.8632H1199.85V152.188H1179.11Z" fill="white"/>
<path d="M1128.04 154.738C1118.74 154.738 1110.58 152.726 1103.56 148.703C1096.53 144.68 1091.03 139.098 1087.07 131.958C1083.16 124.818 1081.2 116.601 1081.2 107.308C1081.2 97.2781 1083.13 88.5798 1086.98 81.2131C1090.83 73.7898 1096.19 68.0381 1103.05 63.9581C1109.9 59.8781 1117.84 57.8381 1126.85 57.8381C1136.37 57.8381 1144.44 60.0765 1151.07 64.5531C1157.76 68.9731 1162.72 75.2348 1165.95 83.3381C1169.18 91.4415 1170.39 100.99 1169.6 111.983H1149.29V104.503C1149.23 94.5298 1147.47 87.2481 1144.02 82.6581C1140.56 78.0681 1135.12 75.7731 1127.7 75.7731C1119.31 75.7731 1113.08 78.3798 1109 83.5931C1104.92 88.7498 1102.88 96.3148 1102.88 106.288C1102.88 115.581 1104.92 122.778 1109 127.878C1113.08 132.978 1119.03 135.528 1126.85 135.528C1131.89 135.528 1136.22 134.423 1139.85 132.213C1143.53 129.946 1146.37 126.688 1148.35 122.438L1168.58 128.558C1165.07 136.831 1159.63 143.263 1152.26 147.853C1144.95 152.443 1136.88 154.738 1128.04 154.738ZM1096.42 111.983V96.5131H1159.57V111.983H1096.42Z" fill="white"/>
<path d="M1026.94 195.538C1021.84 195.538 1016.93 194.745 1012.23 193.158C1007.58 191.571 1003.39 189.276 999.651 186.273C995.911 183.326 992.851 179.756 990.471 175.563L1009.34 166.213C1011.1 169.556 1013.56 172.021 1016.74 173.608C1019.97 175.251 1023.39 176.073 1027.02 176.073C1031.27 176.073 1035.07 175.308 1038.41 173.778C1041.75 172.305 1044.33 170.095 1046.15 167.148C1048.02 164.258 1048.89 160.631 1048.78 156.268V130.173H1051.33V60.3881H1069.27V156.608C1069.27 158.931 1069.15 161.141 1068.93 163.238C1068.76 165.391 1068.44 167.488 1067.99 169.528C1066.63 175.478 1064.02 180.351 1060.17 184.148C1056.32 188.001 1051.53 190.863 1045.81 192.733C1040.14 194.603 1033.85 195.538 1026.94 195.538ZM1025.15 154.738C1016.71 154.738 1009.34 152.613 1003.05 148.363C996.761 144.113 991.887 138.333 988.431 131.023C984.974 123.713 983.246 115.468 983.246 106.288C983.246 96.9948 984.974 88.7215 988.431 81.4681C991.944 74.1581 996.902 68.4065 1003.31 64.2131C1009.71 59.9631 1017.25 57.8381 1025.92 57.8381C1034.64 57.8381 1041.95 59.9631 1047.85 64.2131C1053.8 68.4065 1058.3 74.1581 1061.36 81.4681C1064.42 88.7781 1065.95 97.0515 1065.95 106.288C1065.95 115.411 1064.42 123.656 1061.36 131.023C1058.3 138.333 1053.74 144.113 1047.68 148.363C1041.61 152.613 1034.1 154.738 1025.15 154.738ZM1028.3 136.378C1033.79 136.378 1038.21 135.131 1041.56 132.638C1044.96 130.088 1047.42 126.546 1048.95 122.013C1050.54 117.48 1051.33 112.238 1051.33 106.288C1051.33 100.281 1050.54 95.0398 1048.95 90.5631C1047.42 86.0298 1045.01 82.5165 1041.73 80.0231C1038.44 77.4731 1034.19 76.1981 1028.98 76.1981C1023.48 76.1981 1018.95 77.5581 1015.38 80.2781C1011.81 82.9415 1009.17 86.5681 1007.47 91.1581C1005.77 95.6915 1004.92 100.735 1004.92 106.288C1004.92 111.898 1005.74 116.998 1007.39 121.588C1009.09 126.121 1011.66 129.72 1015.12 132.383C1018.58 135.046 1022.97 136.378 1028.3 136.378Z" fill="white"/>
<path d="M872.593 152.188L911.183 29.7883H941.188L979.778 152.188H958.698L923.678 42.3683H928.268L893.673 152.188H872.593ZM894.098 125.668V106.543H958.358V125.668H894.098Z" fill="white"/>
<path d="M817.738 152.188V107.988C817.738 105.098 817.54 101.897 817.143 98.3832C816.747 94.8698 815.812 91.4982 814.338 88.2682C812.922 84.9815 810.768 82.2898 807.878 80.1932C805.045 78.0965 801.192 77.0482 796.318 77.0482C793.712 77.0482 791.133 77.4732 788.583 78.3232C786.033 79.1732 783.71 80.6465 781.613 82.7432C779.573 84.7832 777.93 87.6165 776.683 91.2432C775.437 94.8132 774.813 99.4032 774.813 105.013L762.658 99.8282C762.658 92.0082 764.16 84.9248 767.163 78.5782C770.223 72.2315 774.7 67.1882 780.593 63.4482C786.487 59.6515 793.74 57.7532 802.353 57.7532C809.153 57.7532 814.763 58.8865 819.183 61.1532C823.603 63.4198 827.117 66.3098 829.723 69.8232C832.33 73.3365 834.257 77.0765 835.503 81.0432C836.75 85.0098 837.543 88.7782 837.883 92.3482C838.28 95.8615 838.478 98.7232 838.478 100.933V152.188H817.738ZM754.073 152.188V60.3882H772.348V88.8632H774.813V152.188H754.073Z" fill="white"/>
<path d="M703.003 154.738C693.71 154.738 685.55 152.726 678.523 148.703C671.496 144.68 666 139.098 662.033 131.958C658.123 124.818 656.168 116.601 656.168 107.308C656.168 97.2781 658.095 88.5798 661.948 81.2131C665.801 73.7898 671.156 68.0381 678.013 63.9581C684.87 59.8781 692.803 57.8381 701.813 57.8381C711.333 57.8381 719.408 60.0765 726.038 64.5531C732.725 68.9731 737.683 75.2348 740.913 83.3381C744.143 91.4415 745.361 100.99 744.568 111.983H724.253V104.503C724.196 94.5298 722.44 87.2481 718.983 82.6581C715.526 78.0681 710.086 75.7731 702.663 75.7731C694.276 75.7731 688.043 78.3798 683.963 83.5931C679.883 88.7498 677.843 96.3148 677.843 106.288C677.843 115.581 679.883 122.778 683.963 127.878C688.043 132.978 693.993 135.528 701.813 135.528C706.856 135.528 711.191 134.423 714.818 132.213C718.501 129.946 721.335 126.688 723.318 122.438L743.548 128.558C740.035 136.831 734.595 143.263 727.228 147.853C719.918 152.443 711.843 154.738 703.003 154.738ZM671.383 111.983V96.5131H734.538V111.983H671.383Z" fill="white"/>
<path d="M607.427 154.738C598.474 154.738 590.965 152.613 584.902 148.363C578.839 144.113 574.277 138.333 571.217 131.023C568.157 123.656 566.627 115.411 566.627 106.288C566.627 97.0515 568.157 88.7781 571.217 81.4681C574.277 74.1581 578.754 68.4065 584.647 64.2131C590.597 59.9631 597.935 57.8381 606.662 57.8381C615.332 57.8381 622.84 59.9631 629.187 64.2131C635.59 68.4065 640.549 74.1581 644.062 81.4681C647.575 88.7215 649.332 96.9948 649.332 106.288C649.332 115.468 647.604 123.713 644.147 131.023C640.69 138.333 635.817 144.113 629.527 148.363C623.237 152.613 615.87 154.738 607.427 154.738ZM563.142 192.988V60.3881H581.247V124.818H583.797V192.988H563.142ZM604.282 136.378C609.609 136.378 614 135.046 617.457 132.383C620.914 129.72 623.464 126.121 625.107 121.588C626.807 116.998 627.657 111.898 627.657 106.288C627.657 100.735 626.807 95.6915 625.107 91.1581C623.407 86.5681 620.772 82.9415 617.202 80.2781C613.632 77.5581 609.099 76.1981 603.602 76.1981C598.389 76.1981 594.139 77.4731 590.852 80.0231C587.565 82.5165 585.129 86.0298 583.542 90.5631C582.012 95.0398 581.247 100.281 581.247 106.288C581.247 112.238 582.012 117.48 583.542 122.013C585.129 126.546 587.594 130.088 590.937 132.638C594.337 135.131 598.785 136.378 604.282 136.378Z" fill="white"/>
<path d="M494.543 154.738C482.303 154.738 471.82 152.075 463.093 146.748C454.366 141.365 447.651 133.885 442.948 124.308C438.301 114.732 435.978 103.625 435.978 90.9883C435.978 78.3516 438.301 67.2449 442.948 57.6683C447.651 48.0916 454.366 40.6399 463.093 35.3133C471.82 29.9299 482.303 27.2383 494.543 27.2383C506.783 27.2383 517.266 29.9299 525.993 35.3133C534.776 40.6399 541.491 48.0916 546.138 57.6683C550.841 67.2449 553.193 78.3516 553.193 90.9883C553.193 103.625 550.841 114.732 546.138 124.308C541.491 133.885 534.776 141.365 525.993 146.748C517.266 152.075 506.783 154.738 494.543 154.738ZM494.543 135.443C502.76 135.5 509.588 133.687 515.028 130.003C520.525 126.32 524.633 121.135 527.353 114.448C530.13 107.762 531.518 99.9416 531.518 90.9883C531.518 82.0349 530.13 74.2716 527.353 67.6983C524.633 61.0683 520.525 55.9116 515.028 52.2283C509.588 48.5449 502.76 46.6466 494.543 46.5333C486.326 46.4766 479.498 48.2899 474.058 51.9733C468.618 55.6566 464.51 60.8416 461.733 67.5283C459.013 74.2149 457.653 82.0349 457.653 90.9883C457.653 99.9416 459.013 107.733 461.733 114.363C464.453 120.937 468.533 126.065 473.973 129.748C479.47 133.432 486.326 135.33 494.543 135.443Z" fill="white"/>
</svg>
