<svg width="1625" height="250" viewBox="0 0 1625 250" fill="none" xmlns="http://www.w3.org/2000/svg">
<path d="M364.304 0.104492C432.97 0.10466 488.822 56.1591 488.822 125.053C488.822 193.408 433.839 249.123 365.911 249.99L364.304 250H125.272C57.1425 250 1.62615 194.819 0.762695 126.665L0.75293 125.053C0.75293 56.159 56.606 0.104492 125.272 0.104492H364.304ZM775.651 72.9902C787.045 72.9903 796.964 75.7849 805.367 81.4092L806.154 81.9336C814.227 87.4203 820.502 94.8355 824.981 104.153C829.606 113.701 831.906 124.568 831.906 136.729C831.906 148.745 829.643 159.571 825.096 169.188C820.548 178.805 814.123 186.432 805.819 192.042C797.491 197.67 787.751 200.469 776.642 200.469C764.955 200.469 755.07 197.708 747.043 192.13V250H718.296V76.293H743.74V83.5967C744.652 82.8428 745.593 82.121 746.563 81.4307C754.468 75.7848 764.185 72.9902 775.651 72.9902ZM122.818 41.5322C117.969 41.4092 113.355 42.4022 109.691 44.668C106.076 46.9043 103.335 50.4097 102.191 55.4551C102.188 55.8571 102.116 56.2585 101.919 56.6455C101.701 57.0719 101.375 57.3976 101.004 57.6699C98.4372 59.5522 96.1759 61.6669 94.2793 64.2207C92.0112 67.3962 90.6805 71.7139 90.6455 75.9668C90.6177 79.351 91.4103 82.6148 93.1201 85.207C93.3727 82.853 93.9713 80.4784 96.0781 78.5674L96.7324 77.9727L97.4023 78.5498C101.794 82.3325 108.379 83.6031 113.312 80.8682L114.102 80.4307L114.617 81.1709C120.696 89.8913 122.954 100.247 124.879 110.559C126.815 120.929 128.414 131.232 133.045 140.251C135.497 144.332 137.917 148.406 140.904 151.955L141.511 152.66L141.561 152.716L141.601 152.779C142.204 153.715 143.216 154.746 144.476 155.86C145.731 156.971 147.147 158.091 148.547 159.245C149.926 160.382 151.285 161.547 152.336 162.692C153.361 163.809 154.234 165.052 154.415 166.354L154.424 166.416L154.425 166.478C154.475 169.936 154.304 173.342 154.665 176.671C154.999 179.751 155.782 182.624 157.564 185.135L157.935 185.633L157.997 185.713L158.042 185.805C159.331 188.419 158.34 190.988 156.609 192.713C154.932 194.385 152.396 195.455 150.021 195.202C148.576 195.382 147.095 195.233 145.659 194.971C144.198 194.704 142.672 194.298 141.282 193.979C138.433 193.326 136.045 193.022 134.104 194.066C133.525 194.631 132.841 194.886 132.193 195.008C131.538 195.131 130.823 195.129 130.283 195.146C129.11 195.185 128.487 195.317 128.068 196.022C127.871 196.469 127.545 196.896 127.277 197.23C127.121 197.426 126.973 197.602 126.837 197.771C128.16 196.936 129.742 196.347 131.708 197.008L132.526 197.283L132.374 198.133C132.31 198.49 132.347 198.685 132.385 198.787C132.42 198.884 132.484 198.975 132.617 199.078C132.763 199.192 132.967 199.3 133.255 199.427C133.483 199.527 133.912 199.697 134.21 199.836L134.806 200.115L134.786 200.772C134.774 201.185 134.703 201.581 134.64 201.913C134.619 202.022 134.598 202.122 134.58 202.217C134.663 202.115 134.749 202.013 134.836 201.914C135.459 201.204 136.264 200.498 137.47 200.184L138.119 200.015L138.522 200.552C139.229 201.495 139.882 202.01 140.477 202.274C141.06 202.533 141.665 202.586 142.346 202.472C143.045 202.354 143.813 202.063 144.688 201.639C145.569 201.212 146.482 200.69 147.516 200.127C149.541 199.024 151.917 197.823 154.683 197.417C157.485 197.006 160.619 197.418 164.16 199.402L163.622 201.273C161.577 201.171 159.906 201.353 158.548 202.32C159.373 201.978 160.116 201.789 160.804 201.726C162.144 201.602 163.158 201.964 163.997 202.386C164.381 202.579 164.796 202.821 165.101 202.986C165.436 203.168 165.73 203.309 166.025 203.403C166.556 203.572 167.182 203.62 168.125 203.24C169.859 202.334 171.741 201.229 173.677 200.465C175.666 199.679 177.826 199.201 180.213 199.579L180.334 201.527C178.537 202.046 177.628 202.995 176.848 204.206C176.429 204.856 176.086 205.514 175.632 206.3C175.213 207.024 174.729 207.793 174.097 208.543C177.619 208.143 179.606 207.332 181.427 206.259C182.466 205.646 183.432 204.961 184.656 204.155C185.857 203.365 187.242 202.5 189.029 201.595C192.125 199.723 195.238 201.134 197.615 202.065C198.896 202.567 199.987 202.958 201.005 203.006C201.947 203.05 202.847 202.8 203.77 201.897L203.776 201.891L203.783 201.885C204.52 201.191 205.371 200.993 206.104 200.93C206.302 200.913 206.501 200.905 206.69 200.9C206.534 200.626 206.35 200.401 206.141 200.215C205.681 199.805 205.048 199.514 204.224 199.322C202.524 198.927 200.379 199.022 198.043 199.034C195.825 199.046 193.392 198.985 191.533 198.077C190.567 197.605 189.737 196.897 189.172 195.861C188.613 194.838 188.353 193.568 188.39 192.028L188.402 191.517L188.825 191.227C191.298 189.538 192.292 187.075 192.695 184.183C192.898 182.728 192.946 181.196 192.965 179.627C192.983 178.08 192.973 176.472 193.067 174.963L193.167 173.379L194.553 174.152C197.708 175.912 201.05 177.303 204.437 178.698C207.594 179.999 210.796 181.306 213.83 182.901L214.435 183.225L214.667 183.352L214.807 183.576C216.394 186.131 218.382 189.027 220.756 191.224C222.952 193.256 225.384 194.603 228.061 194.637C228.158 194.355 228.258 194.075 228.371 193.771L228.66 192.989L229.48 193.133C230.027 193.228 230.627 193.393 231.13 193.517C231.666 193.649 232.135 193.747 232.553 193.77C232.965 193.792 233.255 193.736 233.469 193.622C233.666 193.517 233.897 193.311 234.101 192.842L234.703 191.459L235.742 192.552C238.303 195.245 242.152 195.252 245.982 194.483C246.036 194.412 246.045 194.372 246.046 194.362C246.05 194.332 246.055 194.224 245.925 193.996C245.641 193.5 244.984 192.884 244.039 192.154C243.585 191.803 243.097 191.45 242.599 191.089C242.106 190.732 241.602 190.366 241.137 190.006C240.673 189.647 240.226 189.276 239.852 188.903C239.486 188.539 239.136 188.122 238.922 187.661L238.658 187.092L239.056 186.606C239.08 186.577 239.124 186.519 239.093 186.315C239.057 186.084 238.931 185.747 238.663 185.302C238.129 184.413 237.201 183.351 236.092 182.225C234.992 181.108 233.778 179.989 232.695 178.972C231.671 178.008 230.711 177.085 230.181 176.391C228.17 174.187 227.183 171.537 226.393 168.96C225.58 166.312 224.986 163.81 223.788 161.543L223.77 161.508L223.754 161.471C217.589 147.157 210.56 133.038 200.733 121.01L200.729 121.003L200.723 120.997C195.52 114.411 189.704 108.381 183.75 102.422C177.807 96.4746 171.71 90.583 166.011 84.3262V84.3252C161.689 79.8545 158.965 74.456 156.423 69.1143C153.856 63.7212 151.483 58.4092 147.85 53.8438L147.825 53.8125L147.804 53.7803C142.893 46.5123 132.561 41.7795 122.818 41.5322ZM621.66 33.3652C637.659 33.3653 651.424 36.8851 662.91 43.9707H662.909C674.45 50.9709 683.272 60.7656 689.369 73.3291L689.938 74.5127C695.727 86.8011 698.607 100.944 698.607 116.917C698.607 133.403 695.538 147.94 689.37 160.5L689.371 160.501C683.274 173.068 674.45 182.901 662.908 189.976H662.906C651.421 196.986 637.657 200.469 621.66 200.469C605.663 200.469 591.899 196.986 580.413 189.976L580.409 189.974C568.942 182.9 560.12 173.068 553.95 160.505L553.948 160.501C547.854 147.941 544.822 133.404 544.822 116.917C544.822 100.43 547.854 85.8942 553.948 73.334L553.95 73.3291C560.12 60.7668 568.941 50.9716 580.409 43.9707C591.896 36.885 605.661 33.3652 621.66 33.3652ZM907.67 72.9902C920.154 72.9902 930.812 75.927 939.591 81.8516C948.435 87.6976 954.979 95.9756 959.23 106.641C963.482 117.306 965.068 129.829 964.032 144.177L963.965 145.104H878.116C879.088 152.984 881.514 159.284 885.337 164.062C890.392 170.382 897.781 173.594 907.67 173.594C914.05 173.594 919.475 172.197 923.986 169.449L924.414 169.181C928.796 166.37 932.196 162.395 934.611 157.22L934.978 156.435L935.808 156.686L962.004 164.61L963.07 164.934L962.635 165.959C958.008 176.854 950.83 185.346 941.109 191.402C931.481 197.447 920.84 200.469 909.211 200.469C897.029 200.469 886.286 197.83 877.015 192.521C867.756 187.22 860.508 179.86 855.284 170.456L855.281 170.451C850.127 161.038 847.564 150.229 847.563 138.051C847.563 124.934 850.084 113.505 855.162 103.796C860.233 94.0277 867.294 86.4384 876.34 81.0557C885.392 75.6691 895.847 72.9903 907.67 72.9902ZM1223.37 33.5859C1234.34 33.66 1244.16 35.5501 1252.81 39.2783L1253.62 39.626C1261.92 43.2697 1268.9 48.4954 1274.55 55.3008C1280.38 62.3294 1284.48 70.8006 1286.86 80.6904L1287.11 81.7275L1286.06 81.9102L1257.55 86.8633L1256.6 87.0283L1256.4 86.084C1255.26 80.6556 1253.05 76.0823 1249.8 72.335L1249.79 72.3193C1246.59 68.4816 1242.64 65.568 1237.95 63.5742L1237.94 63.5723C1233.3 61.5718 1228.33 60.4955 1223.02 60.3506C1217.85 60.2788 1213.06 61.0688 1208.63 62.71L1208.63 62.7139C1204.29 64.279 1200.8 66.5394 1198.14 69.4785L1197.68 70.0273C1195.43 72.7994 1194.32 75.9794 1194.32 79.6035C1194.32 83.2749 1195.42 86.2102 1197.57 88.4941C1199.81 90.8018 1202.58 92.6695 1205.91 94.0879C1208.96 95.2938 1212.04 96.3325 1215.14 97.2051L1216.47 97.5693L1216.48 97.5723H1216.48L1244.87 105.494L1246.36 105.9C1249.9 106.888 1253.79 108.157 1258.05 109.704C1262.98 111.497 1267.72 113.998 1272.26 117.201C1276.87 120.449 1280.64 124.711 1283.57 129.969H1283.57C1286.61 135.298 1288.1 142.01 1288.1 150.048C1288.1 158.409 1286.34 165.809 1282.8 172.216C1279.35 178.513 1274.66 183.762 1268.74 187.957C1262.84 192.14 1256.09 195.269 1248.51 197.352L1248.51 197.351C1241 199.43 1233.14 200.469 1224.91 200.469C1213.2 200.469 1202.6 198.43 1193.14 194.333L1193.14 194.332C1183.75 190.235 1175.99 184.378 1169.86 176.761L1169.86 176.753C1163.8 169.048 1159.96 159.932 1158.32 149.432L1158.16 148.439L1159.16 148.289L1186.67 144.106L1187.57 143.97L1187.79 144.853C1190.09 154.033 1194.77 161.084 1201.82 166.069L1202.49 166.532C1209.49 171.235 1217.5 173.594 1226.56 173.594C1232.1 173.594 1237.31 172.73 1242.19 171.009C1247.04 169.294 1250.93 166.808 1253.89 163.572L1253.9 163.564C1256.87 160.387 1258.36 156.49 1258.36 151.81C1258.36 149.721 1258.01 147.831 1257.33 146.127L1257.33 146.114C1256.64 144.339 1255.62 142.77 1254.25 141.399L1254.24 141.391L1254.23 141.381C1252.93 140.013 1251.19 138.754 1248.99 137.618L1248.98 137.609L1248.96 137.6C1246.84 136.396 1244.34 135.359 1241.46 134.496V134.497L1200.52 122.389V122.391C1196.96 121.352 1193.11 119.981 1188.98 118.282L1188.97 118.278L1188.96 118.274C1184.83 116.474 1180.9 114.039 1177.16 110.977L1177.16 110.97L1177.15 110.962C1173.44 107.784 1170.39 103.786 1167.99 98.9834L1167.98 98.9746L1167.98 98.9668C1165.62 94.0269 1164.47 87.9993 1164.47 80.9248C1164.47 70.5513 1167.09 61.7823 1172.37 54.6816L1172.37 54.6797C1177.7 47.5485 1184.83 42.2301 1193.72 38.7188L1193.72 38.7178C1202.66 35.2169 1212.55 33.5118 1223.37 33.5859ZM1223.82 199.463H1223.82H1223.82ZM623.139 199.459H623.14C623.63 199.452 624.119 199.442 624.605 199.429H624.604C624.118 199.442 623.629 199.452 623.139 199.459ZM344.5 50.1299C303.369 50.1299 270.025 83.473 270.025 124.604C270.025 165.736 303.369 199.08 344.5 199.08C385.631 199.08 418.976 165.736 418.976 124.604C418.976 83.473 385.631 50.1299 344.5 50.1299ZM1046.67 72.8809C1055.58 72.8809 1063.01 74.3643 1068.92 77.3936C1074.76 80.3892 1079.43 84.2257 1082.91 88.9141C1086.35 93.5483 1088.9 98.491 1090.55 103.739C1092.18 108.926 1093.22 113.869 1093.67 118.566L1093.85 120.24C1094.25 124.057 1094.45 127.245 1094.45 129.795V197.167H1065.59V138.931C1065.59 135.233 1065.34 131.125 1064.83 126.605C1064.32 122.161 1063.14 117.898 1061.28 113.811L1061.27 113.801L1061.27 113.791C1059.62 109.956 1057.16 106.778 1053.9 104.246L1053.23 103.742C1049.79 101.195 1045.03 99.8662 1038.85 99.8662C1035.59 99.8662 1032.36 100.398 1029.15 101.466C1026.01 102.513 1023.14 104.332 1020.52 106.948C1018.01 109.453 1015.95 112.975 1014.37 117.572L1014.37 117.577L1013.43 117.247L1014.37 117.577C1012.81 122.056 1012.01 127.878 1012.01 135.079V197.167H983.149V76.293H1008.81V87.8799C1011.5 85.0626 1014.55 82.5733 1017.95 80.4141L1018.69 79.9492C1026.38 75.219 1035.72 72.8809 1046.67 72.8809ZM1413.47 37.4014L1444.1 148.374L1474.61 37.4023L1474.82 36.668H1504.76L1504.38 37.9482L1458.16 196.447L1457.95 197.167H1430.25L1430.04 196.443L1398.53 87.0791L1367.24 196.442L1367.03 197.167H1339.33L1339.12 196.447L1292.78 37.9482L1292.41 36.668H1322.35L1322.55 37.4014L1353.18 148.378L1383.7 37.6221L1383.9 36.8936L1384.65 36.8877L1412.5 36.668L1413.27 36.6621L1413.47 37.4014ZM1624.75 63.543H1548.91V100.618H1611.54V127.493H1548.91V170.291H1624.75V197.167H1520.38V36.668H1624.75V63.543ZM935.152 193.584C935.501 193.413 935.847 193.236 936.193 193.058C935.847 193.236 935.501 193.413 935.152 193.584ZM936.518 192.888C936.773 192.754 937.029 192.619 937.283 192.48C937.029 192.619 936.773 192.754 936.518 192.888ZM937.587 192.313C937.893 192.145 938.199 191.974 938.504 191.799C938.199 191.974 937.893 192.145 937.587 192.313ZM938.593 191.748C938.66 191.709 938.728 191.673 938.795 191.634C939.094 191.46 939.393 191.282 939.69 191.103V191.102C939.326 191.322 938.96 191.537 938.593 191.748ZM874.192 189.606C874.456 189.781 874.721 189.954 874.988 190.125C874.449 189.779 873.916 189.426 873.392 189.064L874.192 189.606ZM943.198 188.819C942.631 189.219 942.054 189.608 941.468 189.989L942.341 189.411C942.629 189.216 942.915 189.019 943.198 188.819ZM944.778 187.661L944.87 187.593C944.903 187.568 944.934 187.542 944.967 187.517C944.904 187.565 944.841 187.613 944.778 187.661ZM945.659 186.978C945.687 186.955 945.714 186.932 945.742 186.91C945.714 186.932 945.687 186.955 945.659 186.978ZM946.423 186.359C946.458 186.331 946.492 186.301 946.527 186.272C946.492 186.301 946.458 186.331 946.423 186.359ZM1269.98 185.791C1270.12 185.682 1270.26 185.571 1270.39 185.46C1270.26 185.571 1270.12 185.682 1269.98 185.791ZM947.228 185.682C947.259 185.655 947.29 185.628 947.321 185.601C947.29 185.628 947.259 185.655 947.228 185.682ZM1272.62 183.562C1272 184.125 1271.36 184.674 1270.71 185.208C1270.74 185.185 1270.77 185.163 1270.79 185.14C1271.13 184.863 1271.47 184.583 1271.8 184.298C1271.96 184.155 1272.12 184.012 1272.29 183.867C1272.4 183.767 1272.51 183.663 1272.62 183.562ZM1274.03 182.225C1274.23 182.026 1274.43 181.826 1274.63 181.624C1274.43 181.826 1274.23 182.026 1274.03 182.225ZM771.688 98.7656C765.102 98.7657 759.831 100.374 755.791 103.509L755.783 103.516C751.71 106.606 748.659 110.977 746.658 116.689C744.721 122.358 743.74 129.033 743.74 136.729C743.74 144.346 744.72 151.018 746.656 156.762C748.655 162.472 751.74 166.885 755.89 170.052C760.074 173.117 765.605 174.694 772.569 174.694C779.296 174.694 784.754 173.015 789.02 169.729C793.329 166.408 796.525 161.912 798.596 156.201L798.599 156.194C800.753 150.377 801.838 143.892 801.838 136.729C801.838 129.641 800.753 123.231 798.6 117.488L798.599 117.484C796.457 111.703 793.155 107.173 788.702 103.851L788.693 103.844C784.281 100.482 778.637 98.7656 771.688 98.7656ZM621.646 60.3516C611.16 60.2804 602.531 62.594 595.693 67.2236C588.829 71.8713 583.627 78.4203 580.099 86.9141L580.1 86.915C576.636 95.4291 574.89 105.422 574.89 116.917C574.89 128.411 576.636 138.365 580.098 146.804L580.426 147.581C583.875 155.554 588.93 161.775 595.584 166.28H595.583C602.505 170.917 611.182 173.339 621.674 173.483C632.159 173.555 640.788 171.241 647.626 166.611L647.63 166.608C654.567 161.96 659.766 155.411 663.22 146.92L663.223 146.913C666.757 138.401 668.54 128.409 668.54 116.917C668.54 105.424 666.758 95.5092 663.226 87.1475L663.221 87.1377C659.767 78.7202 654.569 72.2065 647.63 67.5566L647.626 67.5537C640.993 63.0629 632.678 60.6491 622.624 60.3711L621.646 60.3516ZM923.633 170.812C923.228 171.038 922.817 171.253 922.399 171.459C922.812 171.256 923.219 171.043 923.619 170.82L923.633 170.812ZM748.779 163.611C748.817 163.672 748.856 163.732 748.895 163.793C748.763 163.583 748.631 163.371 748.504 163.155L748.779 163.611ZM653.766 162.952C653.948 162.777 654.128 162.599 654.307 162.421C654.128 162.599 653.948 162.777 653.766 162.952ZM654.527 162.199C654.625 162.101 654.722 162.002 654.818 161.902C654.722 162.002 654.625 162.101 654.527 162.199ZM655.049 161.661C655.148 161.557 655.247 161.453 655.345 161.348C655.247 161.453 655.148 161.557 655.049 161.661ZM655.545 161.131C655.657 161.008 655.769 160.885 655.88 160.761C655.769 160.885 655.657 161.008 655.545 161.131ZM656.047 160.575C656.159 160.448 656.271 160.321 656.382 160.192C656.271 160.321 656.159 160.448 656.047 160.575ZM656.557 159.988C656.67 159.855 656.783 159.721 656.896 159.586C656.783 159.721 656.67 159.855 656.557 159.988ZM657.04 159.413C657.2 159.219 657.358 159.023 657.515 158.825C657.358 159.023 657.2 159.219 657.04 159.413ZM1259.33 152.925C1259.33 152.857 1259.34 152.79 1259.34 152.722V152.708C1259.34 152.78 1259.33 152.853 1259.33 152.925ZM662.21 151.509C662.003 151.91 661.793 152.308 661.577 152.699L661.976 151.962C662.055 151.812 662.132 151.66 662.21 151.509ZM1287.06 151.974C1287.07 151.897 1287.07 151.821 1287.07 151.744C1287.07 151.821 1287.07 151.897 1287.06 151.974ZM302.304 95.1064C306.087 91.3232 312.148 91.2051 316.073 94.752L316.446 95.1064L343.393 122.053L316.446 148.999C312.541 152.904 306.209 152.904 302.304 148.999C298.399 145.094 298.399 138.762 302.304 134.856L315.107 122.053L302.304 109.249L301.949 108.876C298.402 104.951 298.521 98.8897 302.304 95.1064ZM579.854 148.761C580.004 149.092 580.158 149.419 580.313 149.744C580.154 149.411 579.997 149.075 579.844 148.735L579.854 148.761ZM664.648 146.042C664.485 146.463 664.319 146.882 664.146 147.296L664.479 146.48C664.536 146.335 664.592 146.188 664.648 146.042ZM375.989 126.993C381.273 127.261 385.475 131.63 385.475 136.98C385.474 142.33 381.272 146.699 375.989 146.967L375.475 146.98H355.185C349.662 146.98 345.185 142.503 345.185 136.98C345.185 131.458 349.662 126.98 355.185 126.98H375.475L375.989 126.993ZM802.622 142.165L802.632 142.055C802.643 141.918 802.651 141.781 802.661 141.645C802.648 141.818 802.636 141.992 802.622 142.165ZM802.686 141.303C802.704 141.033 802.72 140.763 802.735 140.491C802.72 140.763 802.704 141.033 802.686 141.303ZM802.746 140.291C802.76 140.021 802.772 139.751 802.783 139.479C802.772 139.751 802.76 140.021 802.746 140.291ZM1283.58 132.142C1283.79 132.57 1283.98 133.006 1284.17 133.452C1283.98 133.006 1283.78 132.57 1283.58 132.142ZM908.771 98.2148C898.128 98.2149 890.388 101.512 885.344 107.958L885.34 107.962C882.263 111.851 880.09 116.876 878.852 123.072H934.968C933.969 115.999 931.997 110.572 929.105 106.732C924.871 101.11 918.17 98.2148 908.771 98.2148ZM800.658 120.51V120.509C800.555 120.157 800.447 119.808 800.337 119.46C800.447 119.808 800.555 120.157 800.658 120.51ZM669.508 119.464C669.511 119.334 669.516 119.204 669.519 119.074V119.041C669.516 119.182 669.511 119.323 669.508 119.464ZM800.26 119.221C800.163 118.922 800.065 118.625 799.963 118.329C800.065 118.625 800.163 118.922 800.26 119.221ZM799.908 118.172C799.787 117.825 799.664 117.48 799.536 117.138C799.664 117.48 799.787 117.825 799.908 118.172ZM1259.52 111.337C1259.81 111.454 1260.1 111.574 1260.39 111.696C1259.8 111.448 1259.21 111.209 1258.61 110.981L1259.52 111.337ZM886.586 105.053C886.478 105.161 886.37 105.269 886.264 105.379C886.37 105.269 886.478 105.161 886.586 105.053ZM887.146 104.511C887.021 104.627 886.898 104.746 886.775 104.865C886.898 104.746 887.021 104.627 887.146 104.511ZM887.782 103.935C887.617 104.079 887.453 104.225 887.292 104.374C887.454 104.225 887.617 104.079 887.782 103.935ZM888.423 103.396C888.242 103.542 888.065 103.692 887.889 103.844C888.065 103.692 888.242 103.542 888.423 103.396ZM1088.89 101.98C1089.1 102.547 1089.3 103.116 1089.48 103.689C1089.31 103.166 1089.14 102.644 1088.95 102.127C1088.93 102.078 1088.91 102.03 1088.89 101.98ZM754.394 103.339C754.371 103.357 754.35 103.377 754.327 103.396C754.477 103.27 754.629 103.147 754.782 103.025L754.394 103.339ZM1088.22 100.242C1088.43 100.753 1088.63 101.268 1088.82 101.785C1088.75 101.583 1088.67 101.381 1088.59 101.181C1088.47 100.866 1088.35 100.553 1088.22 100.241V100.242ZM760.492 99.7002C760.33 99.7646 760.169 99.8308 760.01 99.8984L760.493 99.7002C760.655 99.6357 760.819 99.573 760.983 99.5117L760.492 99.7002ZM1036.46 98.959C1036.21 98.9788 1035.95 99.0013 1035.7 99.0273H1035.7C1035.95 99.0013 1036.21 98.9787 1036.46 98.959ZM1037.17 98.9121C1036.96 98.9234 1036.76 98.9367 1036.55 98.9521C1036.76 98.9367 1036.96 98.9234 1037.17 98.9121ZM1037.93 98.8809C1037.75 98.8863 1037.57 98.8926 1037.38 98.9014C1037.57 98.8927 1037.75 98.8863 1037.93 98.8809ZM1038.22 98.8721C1038.19 98.8728 1038.15 98.8742 1038.11 98.875C1038.36 98.8691 1038.61 98.8662 1038.85 98.8662C1038.64 98.8662 1038.43 98.8678 1038.22 98.8721ZM918.501 98.4688H918.502H918.501ZM916.271 97.9199H916.272C916.034 97.8711 915.793 97.826 915.55 97.7822C915.792 97.8259 916.033 97.8712 916.271 97.9199ZM915.422 97.7598C915.215 97.7235 915.007 97.6879 914.798 97.6553C915.007 97.688 915.215 97.7234 915.422 97.7598ZM914.649 97.6328C914.404 97.5957 914.157 97.5605 913.907 97.5283C914.157 97.5605 914.404 97.5956 914.649 97.6328ZM1086.04 95.6504C1086.2 95.9508 1086.36 96.252 1086.51 96.5547C1086.2 95.9491 1085.88 95.3483 1085.54 94.752L1086.04 95.6504ZM870.694 86.1729C870.648 86.2097 870.602 86.2462 870.556 86.2832C870.062 86.6811 869.576 87.0882 869.097 87.5029L869.821 86.8867C870.11 86.6459 870.401 86.4078 870.694 86.1729ZM872.268 84.9629C872.05 85.1239 871.835 85.2871 871.62 85.4512C871.835 85.2871 872.05 85.1239 872.268 84.9629ZM873.063 84.3848C872.886 84.5116 872.709 84.6407 872.533 84.7695C872.709 84.6407 872.886 84.5116 873.063 84.3848ZM873.958 83.7607C873.759 83.8967 873.561 84.0345 873.364 84.1729C873.561 84.0345 873.759 83.8967 873.958 83.7607ZM662.828 83.8105L662.741 83.6279C662.68 83.5025 662.616 83.3784 662.554 83.2539C662.646 83.4385 662.737 83.6242 662.828 83.8105ZM874.404 83.458C874.337 83.5031 874.27 83.5494 874.203 83.5947C874.412 83.4539 874.622 83.315 874.833 83.1768C874.69 83.2704 874.546 83.3631 874.404 83.458ZM875.209 82.9307C875.169 82.9564 875.13 82.983 875.09 83.0088C875.305 82.8697 875.522 82.7331 875.739 82.5967C875.562 82.7078 875.385 82.8178 875.209 82.9307ZM876.851 81.915C876.556 82.0901 876.265 82.2684 875.975 82.4482C876.265 82.2684 876.556 82.0901 876.851 81.915ZM1017.73 81.7461C1017.64 81.8052 1017.55 81.8662 1017.46 81.9258C1017.57 81.8552 1017.67 81.7837 1017.78 81.7139L1017.73 81.7461ZM1193.37 81.0293C1193.38 81.1101 1193.39 81.1903 1193.4 81.2705C1193.39 81.1761 1193.38 81.0816 1193.37 80.9863L1193.37 81.0293ZM1019.4 80.6904C1019.33 80.7316 1019.26 80.772 1019.19 80.8135C1019.26 80.772 1019.33 80.7316 1019.4 80.6904ZM932.25 78.8818C933.143 79.2895 934.019 79.7222 934.879 80.1807C934.592 80.0277 934.304 79.8777 934.014 79.7305C933.724 79.5833 933.431 79.4393 933.138 79.2979C932.844 79.1563 932.548 79.0177 932.25 78.8818ZM1019.94 80.3623C1019.92 80.3754 1019.9 80.3892 1019.88 80.4023C1019.97 80.3448 1020.07 80.2882 1020.17 80.2314C1020.09 80.2754 1020.02 80.318 1019.94 80.3623ZM880.245 80.0576C880.072 80.1443 879.9 80.2336 879.729 80.3223C880 80.1825 880.272 80.0443 880.546 79.9092C880.446 79.9587 880.345 80.0075 880.245 80.0576ZM1020.68 79.9365C1020.63 79.9653 1020.58 79.9954 1020.53 80.0244C1020.66 79.948 1020.8 79.8728 1020.94 79.7979C1020.85 79.8444 1020.77 79.8894 1020.68 79.9365ZM881.114 79.6318C881.014 79.6799 880.914 79.7297 880.814 79.7783C881.088 79.6451 881.363 79.5144 881.64 79.3857C881.464 79.4673 881.289 79.5484 881.114 79.6318ZM1021.6 79.4404C1021.46 79.5112 1021.33 79.5831 1021.2 79.6553C1021.33 79.5831 1021.46 79.5113 1021.6 79.4404ZM881.992 79.2217C881.941 79.245 881.891 79.2695 881.84 79.293C882.184 79.1344 882.53 78.9785 882.878 78.8271L881.992 79.2217ZM1022.31 79.0762C1022.19 79.1338 1022.08 79.1923 1021.96 79.251C1022.08 79.1923 1022.19 79.1339 1022.31 79.0762ZM1022.99 78.7363C1022.93 78.7648 1022.88 78.7945 1022.82 78.8232C1022.88 78.7945 1022.93 78.7648 1022.99 78.7363ZM885.835 77.6445C885.707 77.6916 885.579 77.7381 885.451 77.7861C885.579 77.7382 885.707 77.6916 885.835 77.6445ZM886.501 77.4033C886.425 77.4302 886.349 77.4581 886.272 77.4854C886.383 77.4459 886.493 77.406 886.604 77.3672L886.501 77.4033ZM890.256 76.2266C889.937 76.3143 889.62 76.4051 889.305 76.498C889.936 76.3123 890.573 76.1368 891.215 75.9717L890.256 76.2266ZM1032.14 75.501C1032.09 75.5129 1032.05 75.5261 1032 75.5381C1032.34 75.4532 1032.69 75.3703 1033.04 75.292L1032.14 75.501ZM893.305 75.4746C893.226 75.4919 893.147 75.5088 893.068 75.5264C893.147 75.5088 893.226 75.4918 893.305 75.4746ZM894.141 75.2979C894.088 75.3085 894.036 75.3193 893.984 75.3301C894.068 75.3128 894.152 75.2953 894.235 75.2783C894.204 75.2847 894.172 75.2914 894.141 75.2979ZM897.253 74.7471C897.144 74.7635 897.035 74.7809 896.927 74.7979C897.035 74.7809 897.144 74.7635 897.253 74.7471ZM899.181 74.4854C899.153 74.4887 899.125 74.4927 899.098 74.4961C899.245 74.4782 899.392 74.4603 899.54 74.4434C899.42 74.4571 899.3 74.4709 899.181 74.4854ZM900.276 74.3633C900.1 74.3815 899.924 74.4003 899.749 74.4199C899.924 74.4003 900.1 74.3815 900.276 74.3633ZM900.911 74.3008C900.815 74.3098 900.72 74.3187 900.624 74.3281C900.72 74.3187 900.815 74.3098 900.911 74.3008ZM901.692 74.2314C901.604 74.2387 901.516 74.2463 901.428 74.2539C901.516 74.2463 901.604 74.2387 901.692 74.2314ZM902.303 74.1836C902.272 74.1858 902.242 74.1882 902.212 74.1904C902.28 74.1853 902.349 74.1807 902.417 74.1758C902.379 74.1785 902.341 74.1808 902.303 74.1836ZM903.4 74.1113C903.364 74.1134 903.328 74.116 903.292 74.1182C903.328 74.116 903.364 74.1134 903.4 74.1113ZM1042.38 74.0068C1042.17 74.0196 1041.96 74.0341 1041.75 74.0488C1041.96 74.0341 1042.17 74.0197 1042.38 74.0068ZM1043.61 73.9434C1043.3 73.9565 1042.99 73.972 1042.68 73.9893C1042.99 73.9719 1043.3 73.9565 1043.61 73.9434ZM615.708 59.5791C615.514 59.5959 615.321 59.6132 615.128 59.6318C615.321 59.6132 615.514 59.5959 615.708 59.5791ZM616.099 59.5459C616.044 59.5503 615.989 59.5551 615.935 59.5596C616.223 59.5357 616.513 59.5139 616.805 59.4941L616.099 59.5459ZM1195.75 39.0234C1195.19 39.2252 1194.64 39.4339 1194.09 39.6494L1194.92 39.3311C1195.19 39.2268 1195.47 39.1242 1195.75 39.0234ZM1210.78 35.3682C1210.62 35.3906 1210.45 35.4141 1210.29 35.4375C1210.55 35.4005 1210.81 35.3647 1211.07 35.3301C1210.97 35.3428 1210.88 35.3551 1210.78 35.3682ZM1211.72 35.2461C1211.62 35.2584 1211.52 35.2716 1211.42 35.2842C1211.71 35.2469 1212 35.2111 1212.29 35.1768C1212.1 35.1994 1211.91 35.2221 1211.72 35.2461ZM1213.6 35.0332C1213.23 35.0715 1212.85 35.1123 1212.48 35.1553C1212.85 35.1122 1213.23 35.0714 1213.6 35.0332ZM611.827 34.8418C611.509 34.8736 611.193 34.9083 610.877 34.9434C611.193 34.9084 611.509 34.8736 611.827 34.8418ZM613.42 34.6973C613.059 34.7271 612.699 34.7591 612.341 34.793C612.699 34.7592 613.059 34.727 613.42 34.6973ZM614.397 34.6201C614.191 34.635 613.986 34.6528 613.78 34.6689C614.149 34.64 614.518 34.6127 614.89 34.5879C614.725 34.5988 614.561 34.6083 614.397 34.6201ZM616.466 34.4961C616.108 34.5141 615.751 34.5339 615.396 34.5557C615.751 34.5338 616.108 34.5142 616.466 34.4961ZM617.263 34.457C617.152 34.4617 617.041 34.4676 616.931 34.4727C617.393 34.4515 617.857 34.4328 618.323 34.418C617.969 34.4293 617.615 34.4421 617.263 34.457ZM619.851 34.3809C619.392 34.3886 618.936 34.3993 618.481 34.4131C618.936 34.3993 619.392 34.3887 619.851 34.3809ZM621.66 34.3652C621.166 34.3652 620.675 34.3692 620.186 34.376C620.675 34.3692 621.166 34.3652 621.66 34.3652ZM1273.38 182.863C1273.57 182.682 1273.75 182.5 1273.94 182.316C1273.75 182.5 1273.57 182.682 1273.38 182.863ZM1283.47 131.916L1283.23 131.436C1283.31 131.595 1283.39 131.757 1283.47 131.919C1283.47 131.918 1283.47 131.917 1283.47 131.916ZM871.44 85.5879C871.395 85.6232 871.348 85.6579 871.303 85.6934C871.099 85.8517 870.896 86.0118 870.694 86.1729C870.941 85.9756 871.19 85.781 871.44 85.5879Z" fill="#1C3C3C"/>
</svg>
